<?xml version="1.0" encoding="UTF-8" standalone="no"?>
<!DOCTYPE svg PUBLIC "-//W3C//DTD SVG 1.1//EN"
 "http://www.w3.org/Graphics/SVG/1.1/DTD/svg11.dtd">
<!-- Generated by graphviz version 7.1.0 (20230121.1956)
 -->
<!-- Title: classes Pages: 1 -->
<svg width="634pt" height="334pt"
 viewBox="0.00 0.00 633.50 334.00" xmlns="http://www.w3.org/2000/svg" xmlns:xlink="http://www.w3.org/1999/xlink">
<g id="graph0" class="graph" transform="scale(1 1) rotate(0) translate(4 330)">
<title>classes</title>
<polygon fill="white" stroke="none" points="-4,4 -4,-330 629.5,-330 629.5,4 -4,4"/>
<!-- tail_jsonl.config.Config -->
<g id="node1" class="node">
<title>tail_jsonl.config.Config</title>
<polygon fill="none" stroke="black" points="132,-241.5 132,-325.5 186,-325.5 186,-241.5 132,-241.5"/>
<text text-anchor="middle" x="159" y="-310.3" font-family="Times,serif" font-size="14.00">Config</text>
<polyline fill="none" stroke="black" points="132,-302.5 186,-302.5"/>
<text text-anchor="start" x="140" y="-287.3" font-family="Times,serif" font-size="14.00">keys</text>
<text text-anchor="start" x="140" y="-272.3" font-family="Times,serif" font-size="14.00">styles</text>
<polyline fill="none" stroke="black" points="132,-264.5 186,-264.5"/>
<text text-anchor="middle" x="159" y="-249.3" font-family="Times,serif" font-size="14.00"> </text>
</g>
<!-- tail_jsonl.config.Keys -->
<g id="node2" class="node">
<title>tail_jsonl.config.Keys</title>
<polygon fill="none" stroke="black" points="0,-38 0,-152 142,-152 142,-38 0,-38"/>
<text text-anchor="middle" x="71" y="-136.8" font-family="Times,serif" font-size="14.00">Keys</text>
<polyline fill="none" stroke="black" points="0,-129 142,-129"/>
<text text-anchor="start" x="8" y="-113.8" font-family="Times,serif" font-size="14.00">level : List[str]</text>
<text text-anchor="start" x="8" y="-98.8" font-family="Times,serif" font-size="14.00">message : List[str]</text>
<text text-anchor="start" x="8" y="-83.8" font-family="Times,serif" font-size="14.00">on_own_line : List[str]</text>
<text text-anchor="start" x="8" y="-68.8" font-family="Times,serif" font-size="14.00">timestamp : List[str]</text>
<polyline fill="none" stroke="black" points="0,-61 142,-61"/>
<text text-anchor="middle" x="71" y="-45.8" font-family="Times,serif" font-size="14.00"> </text>
</g>
<!-- tail_jsonl.config.Keys&#45;&gt;tail_jsonl.config.Config -->
<g id="edge1" class="edge">
<title>tail_jsonl.config.Keys&#45;&gt;tail_jsonl.config.Config</title>
<path fill="none" stroke="black" d="M97.4,-151.96C109.11,-176.76 122.8,-205.78 134.3,-230.15"/>
<polygon fill="black" stroke="black" points="134.24,-230.03 140.42,-233.75 139.36,-240.88 133.19,-237.17 134.24,-230.03"/>
<text text-anchor="middle" x="143.5" y="-211.8" font-family="Times,serif" font-size="14.00" fill="green">keys</text>
</g>
<!-- tail_jsonl._private.core.Record -->
<g id="node3" class="node">
<title>tail_jsonl._private.core.Record</title>
<polygon fill="none" stroke="black" points="354.5,-38 354.5,-152 625.5,-152 625.5,-38 354.5,-38"/>
<text text-anchor="middle" x="490" y="-136.8" font-family="Times,serif" font-size="14.00">Record</text>
<polyline fill="none" stroke="black" points="354.5,-129 625.5,-129"/>
<text text-anchor="start" x="362.5" y="-113.8" font-family="Times,serif" font-size="14.00">data : dict, Dict</text>
<text text-anchor="start" x="362.5" y="-98.8" font-family="Times,serif" font-size="14.00">level : str</text>
<text text-anchor="start" x="362.5" y="-83.8" font-family="Times,serif" font-size="14.00">message : str</text>
<text text-anchor="start" x="362.5" y="-68.8" font-family="Times,serif" font-size="14.00">timestamp : str</text>
<polyline fill="none" stroke="black" points="354.5,-61 625.5,-61"/>
<text text-anchor="start" x="362.5" y="-45.8" font-family="Times,serif" font-size="14.00">from_line(data: Dict, config: Config): &#39;Record&#39;</text>
</g>
<!-- tail_jsonl.config.Styles -->
<g id="node4" class="node">
<title>tail_jsonl.config.Styles</title>
<polygon fill="none" stroke="black" points="160,-0.5 160,-189.5 336,-189.5 336,-0.5 160,-0.5"/>
<text text-anchor="middle" x="248" y="-174.3" font-family="Times,serif" font-size="14.00">Styles</text>
<polyline fill="none" stroke="black" points="160,-166.5 336,-166.5"/>
<text text-anchor="start" x="168" y="-151.3" font-family="Times,serif" font-size="14.00">key : str</text>
<text text-anchor="start" x="168" y="-136.3" font-family="Times,serif" font-size="14.00">level_debug : str</text>
<text text-anchor="start" x="168" y="-121.3" font-family="Times,serif" font-size="14.00">level_error : str</text>
<text text-anchor="start" x="168" y="-106.3" font-family="Times,serif" font-size="14.00">level_fallback : str</text>
<text text-anchor="start" x="168" y="-91.3" font-family="Times,serif" font-size="14.00">level_info : str</text>
<text text-anchor="start" x="168" y="-76.3" font-family="Times,serif" font-size="14.00">level_warn : str</text>
<text text-anchor="start" x="168" y="-61.3" font-family="Times,serif" font-size="14.00">message : str</text>
<text text-anchor="start" x="168" y="-46.3" font-family="Times,serif" font-size="14.00">timestamp : str</text>
<text text-anchor="start" x="168" y="-31.3" font-family="Times,serif" font-size="14.00">value : str</text>
<polyline fill="none" stroke="black" points="160,-23.5 336,-23.5"/>
<text text-anchor="start" x="168" y="-8.3" font-family="Times,serif" font-size="14.00">get_level_style(level: str): str</text>
</g>
<!-- tail_jsonl.config.Styles&#45;&gt;tail_jsonl.config.Config -->
<g id="edge2" class="edge">
<title>tail_jsonl.config.Styles&#45;&gt;tail_jsonl.config.Config</title>
<path fill="none" stroke="black" d="M203.5,-189.25C196.85,-203.19 190.2,-217.13 184.14,-229.82"/>
<polygon fill="black" stroke="black" points="184.09,-229.93 185.11,-237.07 178.92,-240.76 177.89,-233.62 184.09,-229.93"/>
<text text-anchor="middle" x="208.5" y="-211.8" font-family="Times,serif" font-size="14.00" fill="green">styles</text>
</g>
</g>
</svg>
