<?xml version="1.0" encoding="UTF-8" standalone="no"?>
<!DOCTYPE svg PUBLIC "-//W3C//DTD SVG 1.1//EN"
 "http://www.w3.org/Graphics/SVG/1.1/DTD/svg11.dtd">
<!-- Generated by graphviz version 2.43.0 (0)
 -->
<!-- Title: classes Pages: 1 -->
<svg width="788pt" height="259pt"
 viewBox="0.00 0.00 788.00 259.00" xmlns="http://www.w3.org/2000/svg" xmlns:xlink="http://www.w3.org/1999/xlink">
<g id="graph0" class="graph" transform="scale(1 1) rotate(0) translate(4 255)">
<title>classes</title>
<polygon fill="white" stroke="transparent" points="-4,4 -4,-255 784,-255 784,4 -4,4"/>
<!-- tail_jsonl.config.Config -->
<g id="node1" class="node">
<title>tail_jsonl.config.Config</title>
<polygon fill="none" stroke="black" points="29,-166.5 29,-250.5 145,-250.5 145,-166.5 29,-166.5"/>
<text text-anchor="start" x="64" y="-235.3" font-family="Times,serif" font-size="14.00">Config</text>
<polyline fill="none" stroke="black" points="29,-227.5 145,-227.5 "/>
<text text-anchor="start" x="37" y="-212.3" font-family="Times,serif" font-size="14.00">keys</text>
<text text-anchor="start" x="37" y="-197.3" font-family="Times,serif" font-size="14.00">styles : Styles</text>
<polyline fill="none" stroke="black" points="29,-189.5 145,-189.5 "/>
<text text-anchor="start" x="84.5" y="-174.3" font-family="Times,serif" font-size="14.00"> </text>
</g>
<!-- tail_jsonl.config.Keys -->
<g id="node2" class="node">
<title>tail_jsonl.config.Keys</title>
<polygon fill="none" stroke="black" points="0,-0.5 0,-114.5 174,-114.5 174,-0.5 0,-0.5"/>
<text text-anchor="start" x="70" y="-99.3" font-family="Times,serif" font-size="14.00">Keys</text>
<polyline fill="none" stroke="black" points="0,-91.5 174,-91.5 "/>
<text text-anchor="start" x="8" y="-76.3" font-family="Times,serif" font-size="14.00">level : List[str]</text>
<text text-anchor="start" x="8" y="-61.3" font-family="Times,serif" font-size="14.00">message : List[str]</text>
<text text-anchor="start" x="8" y="-46.3" font-family="Times,serif" font-size="14.00">on_own_line : List[str]</text>
<text text-anchor="start" x="8" y="-31.3" font-family="Times,serif" font-size="14.00">timestamp : List[str]</text>
<polyline fill="none" stroke="black" points="0,-23.5 174,-23.5 "/>
<text text-anchor="start" x="84.5" y="-8.3" font-family="Times,serif" font-size="14.00"> </text>
</g>
<!-- tail_jsonl.config.Keys&#45;&gt;tail_jsonl.config.Config -->
<g id="edge1" class="edge">
<title>tail_jsonl.config.Keys&#45;&gt;tail_jsonl.config.Config</title>
<path fill="none" stroke="black" d="M87,-114.83C87,-127.69 87,-141.31 87,-154.04"/>
<polygon fill="black" stroke="black" points="87,-154.42 91,-160.42 87,-166.42 83,-160.42 87,-154.42"/>
<text text-anchor="middle" x="103.5" y="-136.8" font-family="Times,serif" font-size="14.00" fill="green">keys</text>
</g>
<!-- tail_jsonl._private.core.Record -->
<g id="node3" class="node">
<title>tail_jsonl._private.core.Record</title>
<polygon fill="none" stroke="black" points="192.5,-0.5 192.5,-114.5 529.5,-114.5 529.5,-0.5 192.5,-0.5"/>
<text text-anchor="start" x="335.5" y="-99.3" font-family="Times,serif" font-size="14.00">Record</text>
<polyline fill="none" stroke="black" points="192.5,-91.5 529.5,-91.5 "/>
<text text-anchor="start" x="305.5" y="-76.3" font-family="Times,serif" font-size="14.00">data : Dict, dict</text>
<text text-anchor="start" x="305.5" y="-61.3" font-family="Times,serif" font-size="14.00">level : str</text>
<text text-anchor="start" x="305.5" y="-46.3" font-family="Times,serif" font-size="14.00">message : str</text>
<text text-anchor="start" x="305.5" y="-31.3" font-family="Times,serif" font-size="14.00">timestamp : str</text>
<polyline fill="none" stroke="black" points="192.5,-23.5 529.5,-23.5 "/>
<text text-anchor="start" x="200.5" y="-8.3" font-family="Times,serif" font-size="14.00">from_line(data: Dict, config: Config): &#39;Record&#39;</text>
</g>
<!-- tail_jsonl._runtime_type_check_setup._RuntimeTypeCheckingModes -->
<g id="node4" class="node">
<title>tail_jsonl._runtime_type_check_setup._RuntimeTypeCheckingModes</title>
<polygon fill="none" stroke="black" points="548,-23 548,-92 780,-92 780,-23 548,-23"/>
<text text-anchor="start" x="556" y="-76.8" font-family="Times,serif" font-size="14.00">_RuntimeTypeCheckingModes</text>
<polyline fill="none" stroke="black" points="548,-69 780,-69 "/>
<text text-anchor="start" x="644" y="-53.8" font-family="Times,serif" font-size="14.00">name</text>
<polyline fill="none" stroke="black" points="548,-46 780,-46 "/>
<text text-anchor="start" x="574.5" y="-30.8" font-family="Times,serif" font-size="14.00">from_environment(): Self</text>
</g>
</g>
</svg>
