<?xml version="1.0" encoding="UTF-8" standalone="no"?>
<!DOCTYPE svg PUBLIC "-//W3C//DTD SVG 1.1//EN"
 "http://www.w3.org/Graphics/SVG/1.1/DTD/svg11.dtd">
<!-- Generated by graphviz version 7.1.0 (20230121.1956)
 -->
<!-- Title: classes Pages: 1 -->
<svg width="440pt" height="259pt"
 viewBox="0.00 0.00 439.50 259.00" xmlns="http://www.w3.org/2000/svg" xmlns:xlink="http://www.w3.org/1999/xlink">
<g id="graph0" class="graph" transform="scale(1 1) rotate(0) translate(4 255)">
<title>classes</title>
<polygon fill="white" stroke="none" points="-4,4 -4,-255 435.5,-255 435.5,4 -4,4"/>
<!-- tail_jsonl.config.Config -->
<g id="node1" class="node">
<title>tail_jsonl.config.Config</title>
<polygon fill="none" stroke="black" points="25,-166.5 25,-250.5 117,-250.5 117,-166.5 25,-166.5"/>
<text text-anchor="start" x="52" y="-235.3" font-family="Times,serif" font-size="14.00">Config</text>
<polyline fill="none" stroke="black" points="25,-227.5 117,-227.5"/>
<text text-anchor="start" x="33" y="-212.3" font-family="Times,serif" font-size="14.00">keys</text>
<text text-anchor="start" x="33" y="-197.3" font-family="Times,serif" font-size="14.00">styles : Styles</text>
<polyline fill="none" stroke="black" points="25,-189.5 117,-189.5"/>
<text text-anchor="start" x="69" y="-174.3" font-family="Times,serif" font-size="14.00"> </text>
</g>
<!-- tail_jsonl.config.Keys -->
<g id="node2" class="node">
<title>tail_jsonl.config.Keys</title>
<polygon fill="none" stroke="black" points="0,-0.5 0,-114.5 142,-114.5 142,-0.5 0,-0.5"/>
<text text-anchor="start" x="57" y="-99.3" font-family="Times,serif" font-size="14.00">Keys</text>
<polyline fill="none" stroke="black" points="0,-91.5 142,-91.5"/>
<text text-anchor="start" x="8" y="-76.3" font-family="Times,serif" font-size="14.00">level : List[str]</text>
<text text-anchor="start" x="8" y="-61.3" font-family="Times,serif" font-size="14.00">message : List[str]</text>
<text text-anchor="start" x="8" y="-46.3" font-family="Times,serif" font-size="14.00">on_own_line : List[str]</text>
<text text-anchor="start" x="8" y="-31.3" font-family="Times,serif" font-size="14.00">timestamp : List[str]</text>
<polyline fill="none" stroke="black" points="0,-23.5 142,-23.5"/>
<text text-anchor="start" x="69" y="-8.3" font-family="Times,serif" font-size="14.00"> </text>
</g>
<!-- tail_jsonl.config.Keys&#45;&gt;tail_jsonl.config.Config -->
<g id="edge1" class="edge">
<title>tail_jsonl.config.Keys&#45;&gt;tail_jsonl.config.Config</title>
<path fill="none" stroke="black" d="M71,-114.41C71,-127.28 71,-140.94 71,-153.72"/>
<polygon fill="black" stroke="black" points="71,-153.74 75,-159.74 71,-165.74 67,-159.74 71,-153.74"/>
<text text-anchor="middle" x="83.5" y="-136.8" font-family="Times,serif" font-size="14.00" fill="green">keys</text>
</g>
<!-- tail_jsonl._private.core.Record -->
<g id="node3" class="node">
<title>tail_jsonl._private.core.Record</title>
<polygon fill="none" stroke="black" points="160.5,-0.5 160.5,-114.5 431.5,-114.5 431.5,-0.5 160.5,-0.5"/>
<text text-anchor="start" x="276" y="-99.3" font-family="Times,serif" font-size="14.00">Record</text>
<polyline fill="none" stroke="black" points="160.5,-91.5 431.5,-91.5"/>
<text text-anchor="start" x="253.5" y="-76.3" font-family="Times,serif" font-size="14.00">data : dict, Dict</text>
<text text-anchor="start" x="253.5" y="-61.3" font-family="Times,serif" font-size="14.00">level : str</text>
<text text-anchor="start" x="253.5" y="-46.3" font-family="Times,serif" font-size="14.00">message : str</text>
<text text-anchor="start" x="253.5" y="-31.3" font-family="Times,serif" font-size="14.00">timestamp : str</text>
<polyline fill="none" stroke="black" points="160.5,-23.5 431.5,-23.5"/>
<text text-anchor="start" x="168.5" y="-8.3" font-family="Times,serif" font-size="14.00">from_line(data: Dict, config: Config): &#39;Record&#39;</text>
</g>
</g>
</svg>
