<?xml version="1.0" encoding="UTF-8" standalone="no"?>
<!DOCTYPE svg PUBLIC "-//W3C//DTD SVG 1.1//EN"
 "http://www.w3.org/Graphics/SVG/1.1/DTD/svg11.dtd">
<!-- Generated by graphviz version 11.0.0 (20240428.1522)
 -->
<!-- Title: classes Pages: 1 -->
<svg width="643pt" height="276pt"
 viewBox="0.00 0.00 643.12 275.50" xmlns="http://www.w3.org/2000/svg" xmlns:xlink="http://www.w3.org/1999/xlink">
<g id="graph0" class="graph" transform="scale(1 1) rotate(0) translate(4 271.5)">
<title>classes</title>
<polygon fill="white" stroke="none" points="-4,4 -4,-271.5 639.12,-271.5 639.12,4 -4,4"/>
<!-- tail_jsonl.config.Config -->
<g id="node1" class="node">
<title>tail_jsonl.config.Config</title>
<polygon fill="none" stroke="black" points="25.12,-177 25.12,-267 116.12,-267 116.12,-177 25.12,-177"/>
<text text-anchor="start" x="51.88" y="-249.7" font-family="Times,serif" font-size="14.00">Config</text>
<polyline fill="none" stroke="black" points="25.12,-242.5 116.12,-242.5"/>
<text text-anchor="start" x="33.12" y="-225.2" font-family="Times,serif" font-size="14.00">keys</text>
<text text-anchor="start" x="33.12" y="-208.7" font-family="Times,serif" font-size="14.00">styles : Styles</text>
<polyline fill="none" stroke="black" points="25.12,-201.5 116.12,-201.5"/>
<text text-anchor="start" x="68.75" y="-184.2" font-family="Times,serif" font-size="14.00"> </text>
</g>
<!-- tail_jsonl.config.Keys -->
<g id="node2" class="node">
<title>tail_jsonl.config.Keys</title>
<polygon fill="none" stroke="black" points="0,-0.5 0,-123.5 141.25,-123.5 141.25,-0.5 0,-0.5"/>
<text text-anchor="start" x="56.75" y="-106.2" font-family="Times,serif" font-size="14.00">Keys</text>
<polyline fill="none" stroke="black" points="0,-99 141.25,-99"/>
<text text-anchor="start" x="8" y="-81.7" font-family="Times,serif" font-size="14.00">level : List[str]</text>
<text text-anchor="start" x="8" y="-65.2" font-family="Times,serif" font-size="14.00">message : List[str]</text>
<text text-anchor="start" x="8" y="-48.7" font-family="Times,serif" font-size="14.00">on_own_line : List[str]</text>
<text text-anchor="start" x="8" y="-32.2" font-family="Times,serif" font-size="14.00">timestamp : List[str]</text>
<polyline fill="none" stroke="black" points="0,-25 141.25,-25"/>
<text text-anchor="start" x="68.75" y="-7.7" font-family="Times,serif" font-size="14.00"> </text>
</g>
<!-- tail_jsonl.config.Keys&#45;&gt;tail_jsonl.config.Config -->
<g id="edge1" class="edge">
<title>tail_jsonl.config.Keys&#45;&gt;tail_jsonl.config.Config</title>
<path fill="none" stroke="black" d="M70.62,-123.64C70.62,-136.95 70.62,-151 70.62,-164.16"/>
<polygon fill="black" stroke="black" points="70.63,-164.06 74.63,-170.06 70.63,-176.06 66.63,-170.06 70.63,-164.06"/>
<text text-anchor="middle" x="83" y="-145.2" font-family="Times,serif" font-size="14.00" fill="green">keys</text>
</g>
<!-- tail_jsonl._private.core.Record -->
<g id="node3" class="node">
<title>tail_jsonl._private.core.Record</title>
<polygon fill="none" stroke="black" points="159.5,-0.5 159.5,-123.5 429.75,-123.5 429.75,-0.5 159.5,-0.5"/>
<text text-anchor="start" x="275.12" y="-106.2" font-family="Times,serif" font-size="14.00">Record</text>
<polyline fill="none" stroke="black" points="159.5,-99 429.75,-99"/>
<text text-anchor="start" x="252.25" y="-81.7" font-family="Times,serif" font-size="14.00">data : Dict, dict</text>
<text text-anchor="start" x="252.25" y="-65.2" font-family="Times,serif" font-size="14.00">level : str</text>
<text text-anchor="start" x="252.25" y="-48.7" font-family="Times,serif" font-size="14.00">message : str</text>
<text text-anchor="start" x="252.25" y="-32.2" font-family="Times,serif" font-size="14.00">timestamp : str</text>
<polyline fill="none" stroke="black" points="159.5,-25 429.75,-25"/>
<text text-anchor="start" x="167.5" y="-7.7" font-family="Times,serif" font-size="14.00">from_line(data: Dict, config: Config): &#39;Record&#39;</text>
</g>
<!-- tail_jsonl._RuntimeTypeCheckingModes -->
<g id="node4" class="node">
<title>tail_jsonl._RuntimeTypeCheckingModes</title>
<polygon fill="none" stroke="black" points="448.12,-25.25 448.12,-98.75 635.12,-98.75 635.12,-25.25 448.12,-25.25"/>
<text text-anchor="start" x="456.12" y="-81.45" font-family="Times,serif" font-size="14.00">_RuntimeTypeCheckingModes</text>
<polyline fill="none" stroke="black" points="448.12,-74.25 635.12,-74.25"/>
<text text-anchor="start" x="526.62" y="-56.95" font-family="Times,serif" font-size="14.00">name</text>
<polyline fill="none" stroke="black" points="448.12,-49.75 635.12,-49.75"/>
<text text-anchor="start" x="471.12" y="-32.45" font-family="Times,serif" font-size="14.00">from_environment(): Self</text>
</g>
</g>
</svg>
