<?xml version="1.0" encoding="UTF-8" standalone="no"?>
<!DOCTYPE svg PUBLIC "-//W3C//DTD SVG 1.1//EN"
 "http://www.w3.org/Graphics/SVG/1.1/DTD/svg11.dtd">
<!-- Generated by graphviz version 2.43.0 (0)
 -->
<!-- Title: packages Pages: 1 -->
<svg width="484pt" height="116pt"
 viewBox="0.00 0.00 484.00 116.00" xmlns="http://www.w3.org/2000/svg" xmlns:xlink="http://www.w3.org/1999/xlink">
<g id="graph0" class="graph" transform="scale(1 1) rotate(0) translate(4 112)">
<title>packages</title>
<polygon fill="white" stroke="transparent" points="-4,4 -4,-112 480,-112 480,4 -4,4"/>
<!-- tail_jsonl -->
<g id="node1" class="node">
<title>tail_jsonl</title>
<polygon fill="none" stroke="black" points="80,-36 0,-36 0,0 80,0 80,-36"/>
<text text-anchor="middle" x="40" y="-14.3" font-family="Times,serif" font-size="14.00">tail_jsonl</text>
</g>
<!-- tail_jsonl._private -->
<g id="node2" class="node">
<title>tail_jsonl._private</title>
<polygon fill="none" stroke="black" points="241.5,-36 98.5,-36 98.5,0 241.5,0 241.5,-36"/>
<text text-anchor="middle" x="170" y="-14.3" font-family="Times,serif" font-size="14.00">tail_jsonl._private</text>
</g>
<!-- tail_jsonl._private.core -->
<g id="node3" class="node">
<title>tail_jsonl._private.core</title>
<polygon fill="none" stroke="black" points="330,-108 152,-108 152,-72 330,-72 330,-108"/>
<text text-anchor="middle" x="241" y="-86.3" font-family="Times,serif" font-size="14.00">tail_jsonl._private.core</text>
</g>
<!-- tail_jsonl.config -->
<g id="node4" class="node">
<title>tail_jsonl.config</title>
<polygon fill="none" stroke="black" points="476,-108 348,-108 348,-72 476,-72 476,-108"/>
<text text-anchor="middle" x="412" y="-86.3" font-family="Times,serif" font-size="14.00">tail_jsonl.config</text>
</g>
<!-- tail_jsonl.scripts -->
<g id="node5" class="node">
<title>tail_jsonl.scripts</title>
<polygon fill="none" stroke="black" points="394,-36 260,-36 260,0 394,0 394,-36"/>
<text text-anchor="middle" x="327" y="-14.3" font-family="Times,serif" font-size="14.00">tail_jsonl.scripts</text>
</g>
<!-- tail_jsonl.scripts&#45;&gt;tail_jsonl._private.core -->
<g id="edge1" class="edge">
<title>tail_jsonl.scripts&#45;&gt;tail_jsonl._private.core</title>
<path fill="none" stroke="black" d="M305.74,-36.3C294.91,-45.12 281.58,-55.97 269.84,-65.53"/>
<polygon fill="black" stroke="black" points="262.01,-71.9 266.93,-62.09 265.89,-68.74 269.77,-65.58 269.77,-65.58 269.77,-65.58 265.89,-68.74 272.61,-69.07 262.01,-71.9 262.01,-71.9"/>
</g>
<!-- tail_jsonl.scripts&#45;&gt;tail_jsonl.config -->
<g id="edge2" class="edge">
<title>tail_jsonl.scripts&#45;&gt;tail_jsonl.config</title>
<path fill="none" stroke="black" d="M348.01,-36.3C358.72,-45.12 371.89,-55.97 383.5,-65.53"/>
<polygon fill="black" stroke="black" points="391.23,-71.9 380.65,-69.01 387.37,-68.72 383.51,-65.54 383.51,-65.54 383.51,-65.54 387.37,-68.72 386.37,-62.06 391.23,-71.9 391.23,-71.9"/>
</g>
</g>
</svg>
