<?xml version="1.0" encoding="UTF-8" standalone="no"?>
<!DOCTYPE svg PUBLIC "-//W3C//DTD SVG 1.1//EN"
 "http://www.w3.org/Graphics/SVG/1.1/DTD/svg11.dtd">
<!-- Generated by graphviz version 7.1.0 (20230121.1956)
 -->
<!-- Title: packages Pages: 1 -->
<svg width="403pt" height="116pt"
 viewBox="0.00 0.00 403.00 116.00" xmlns="http://www.w3.org/2000/svg" xmlns:xlink="http://www.w3.org/1999/xlink">
<g id="graph0" class="graph" transform="scale(1 1) rotate(0) translate(4 112)">
<title>packages</title>
<polygon fill="white" stroke="none" points="-4,4 -4,-112 399,-112 399,4 -4,4"/>
<!-- tail_jsonl -->
<g id="node1" class="node">
<title>tail_jsonl</title>
<polygon fill="none" stroke="black" points="67,-36 0,-36 0,0 67,0 67,-36"/>
<text text-anchor="middle" x="33.5" y="-14.3" font-family="Times,serif" font-size="14.00">tail_jsonl</text>
</g>
<!-- tail_jsonl._private -->
<g id="node2" class="node">
<title>tail_jsonl._private</title>
<polygon fill="none" stroke="black" points="200,-36 85,-36 85,0 200,0 200,-36"/>
<text text-anchor="middle" x="142.5" y="-14.3" font-family="Times,serif" font-size="14.00">tail_jsonl._private</text>
</g>
<!-- tail_jsonl._private.core -->
<g id="node3" class="node">
<title>tail_jsonl._private.core</title>
<polygon fill="none" stroke="black" points="271.5,-108 129.5,-108 129.5,-72 271.5,-72 271.5,-108"/>
<text text-anchor="middle" x="200.5" y="-86.3" font-family="Times,serif" font-size="14.00">tail_jsonl._private.core</text>
</g>
<!-- tail_jsonl.config -->
<g id="node4" class="node">
<title>tail_jsonl.config</title>
<polygon fill="none" stroke="black" points="395,-108 290,-108 290,-72 395,-72 395,-108"/>
<text text-anchor="middle" x="342.5" y="-86.3" font-family="Times,serif" font-size="14.00">tail_jsonl.config</text>
</g>
<!-- tail_jsonl.scripts -->
<g id="node5" class="node">
<title>tail_jsonl.scripts</title>
<polygon fill="none" stroke="black" points="324.5,-36 218.5,-36 218.5,0 324.5,0 324.5,-36"/>
<text text-anchor="middle" x="271.5" y="-14.3" font-family="Times,serif" font-size="14.00">tail_jsonl.scripts</text>
</g>
<!-- tail_jsonl.scripts&#45;&gt;tail_jsonl._private.core -->
<g id="edge1" class="edge">
<title>tail_jsonl.scripts&#45;&gt;tail_jsonl._private.core</title>
<path fill="none" stroke="black" d="M253.95,-36.3C245.18,-44.95 234.43,-55.55 224.87,-64.97"/>
<polygon fill="black" stroke="black" points="217.85,-71.9 221.81,-61.67 221.41,-68.39 224.97,-64.87 224.97,-64.87 224.97,-64.87 221.41,-68.39 228.13,-68.08 217.85,-71.9 217.85,-71.9"/>
</g>
<!-- tail_jsonl.scripts&#45;&gt;tail_jsonl.config -->
<g id="edge2" class="edge">
<title>tail_jsonl.scripts&#45;&gt;tail_jsonl.config</title>
<path fill="none" stroke="black" d="M289.05,-36.3C297.82,-44.95 308.57,-55.55 318.13,-64.97"/>
<polygon fill="black" stroke="black" points="325.15,-71.9 314.87,-68.08 321.59,-68.39 318.03,-64.87 318.03,-64.87 318.03,-64.87 321.59,-68.39 321.19,-61.67 325.15,-71.9 325.15,-71.9"/>
</g>
</g>
</svg>
