<?xml version="1.0" encoding="UTF-8" standalone="no"?>
<!DOCTYPE svg PUBLIC "-//W3C//DTD SVG 1.1//EN"
 "http://www.w3.org/Graphics/SVG/1.1/DTD/svg11.dtd">
<!-- Generated by graphviz version 2.43.0 (0)
 -->
<!-- Title: packages Pages: 1 -->
<svg width="567pt" height="188pt"
 viewBox="0.00 0.00 566.50 188.00" xmlns="http://www.w3.org/2000/svg" xmlns:xlink="http://www.w3.org/1999/xlink">
<g id="graph0" class="graph" transform="scale(1 1) rotate(0) translate(4 184)">
<title>packages</title>
<polygon fill="white" stroke="transparent" points="-4,4 -4,-184 562.5,-184 562.5,4 -4,4"/>
<!-- tail_jsonl -->
<g id="node1" class="node">
<title>tail_jsonl</title>
<polygon fill="none" stroke="black" points="180.5,-36 100.5,-36 100.5,0 180.5,0 180.5,-36"/>
<text text-anchor="middle" x="140.5" y="-14.3" font-family="Times,serif" font-size="14.00">tail_jsonl</text>
</g>
<!-- tail_jsonl._runtime_type_check_setup -->
<g id="node4" class="node">
<title>tail_jsonl._runtime_type_check_setup</title>
<polygon fill="none" stroke="black" points="281,-108 0,-108 0,-72 281,-72 281,-108"/>
<text text-anchor="middle" x="140.5" y="-86.3" font-family="Times,serif" font-size="14.00">tail_jsonl._runtime_type_check_setup</text>
</g>
<!-- tail_jsonl&#45;&gt;tail_jsonl._runtime_type_check_setup -->
<g id="edge1" class="edge">
<title>tail_jsonl&#45;&gt;tail_jsonl._runtime_type_check_setup</title>
<path fill="none" stroke="black" d="M140.5,-36.3C140.5,-44.02 140.5,-53.29 140.5,-61.89"/>
<polygon fill="black" stroke="black" points="140.5,-71.9 136,-61.9 140.5,-66.9 140.5,-61.9 140.5,-61.9 140.5,-61.9 140.5,-66.9 145,-61.9 140.5,-71.9 140.5,-71.9"/>
</g>
<!-- tail_jsonl._private -->
<g id="node2" class="node">
<title>tail_jsonl._private</title>
<polygon fill="none" stroke="black" points="381,-36 238,-36 238,0 381,0 381,-36"/>
<text text-anchor="middle" x="309.5" y="-14.3" font-family="Times,serif" font-size="14.00">tail_jsonl._private</text>
</g>
<!-- tail_jsonl._private.core -->
<g id="node3" class="node">
<title>tail_jsonl._private.core</title>
<polygon fill="none" stroke="black" points="525.5,-108 347.5,-108 347.5,-72 525.5,-72 525.5,-108"/>
<text text-anchor="middle" x="436.5" y="-86.3" font-family="Times,serif" font-size="14.00">tail_jsonl._private.core</text>
</g>
<!-- tail_jsonl.config -->
<g id="node5" class="node">
<title>tail_jsonl.config</title>
<polygon fill="none" stroke="black" points="558.5,-180 430.5,-180 430.5,-144 558.5,-144 558.5,-180"/>
<text text-anchor="middle" x="494.5" y="-158.3" font-family="Times,serif" font-size="14.00">tail_jsonl.config</text>
</g>
<!-- tail_jsonl._private.core&#45;&gt;tail_jsonl.config -->
<g id="edge2" class="edge">
<title>tail_jsonl._private.core&#45;&gt;tail_jsonl.config</title>
<path fill="none" stroke="black" d="M450.84,-108.3C457.79,-116.7 466.27,-126.93 473.9,-136.14"/>
<polygon fill="black" stroke="black" points="480.33,-143.9 470.48,-139.07 477.14,-140.05 473.95,-136.2 473.95,-136.2 473.95,-136.2 477.14,-140.05 477.41,-133.32 480.33,-143.9 480.33,-143.9"/>
</g>
<!-- tail_jsonl.scripts -->
<g id="node6" class="node">
<title>tail_jsonl.scripts</title>
<polygon fill="none" stroke="black" points="552.5,-36 418.5,-36 418.5,0 552.5,0 552.5,-36"/>
<text text-anchor="middle" x="485.5" y="-14.3" font-family="Times,serif" font-size="14.00">tail_jsonl.scripts</text>
</g>
<!-- tail_jsonl.scripts&#45;&gt;tail_jsonl._private.core -->
<g id="edge3" class="edge">
<title>tail_jsonl.scripts&#45;&gt;tail_jsonl._private.core</title>
<path fill="none" stroke="black" d="M473.39,-36.3C467.63,-44.53 460.64,-54.52 454.29,-63.58"/>
<polygon fill="black" stroke="black" points="448.47,-71.9 450.52,-61.12 451.34,-67.8 454.21,-63.7 454.21,-63.7 454.21,-63.7 451.34,-67.8 457.89,-66.28 448.47,-71.9 448.47,-71.9"/>
</g>
<!-- tail_jsonl.scripts&#45;&gt;tail_jsonl.config -->
<g id="edge4" class="edge">
<title>tail_jsonl.scripts&#45;&gt;tail_jsonl.config</title>
<path fill="none" stroke="black" d="M507.65,-36.13C517.91,-45.48 529.02,-58 534.5,-72 540.33,-86.9 539.58,-92.83 534.5,-108 531.15,-118 525.08,-127.62 518.67,-135.86"/>
<polygon fill="black" stroke="black" points="512.23,-143.6 515.17,-133.03 515.43,-139.76 518.63,-135.91 518.63,-135.91 518.63,-135.91 515.43,-139.76 522.09,-138.79 512.23,-143.6 512.23,-143.6"/>
</g>
</g>
</svg>
