<?xml version="1.0" encoding="UTF-8" standalone="no"?>
<!DOCTYPE svg PUBLIC "-//W3C//DTD SVG 1.1//EN"
 "http://www.w3.org/Graphics/SVG/1.1/DTD/svg11.dtd">
<!-- Generated by graphviz version 8.1.0 (20230707.0739)
 -->
<!-- Title: packages Pages: 1 -->
<svg width="399pt" height="116pt"
 viewBox="0.00 0.00 399.38 116.00" xmlns="http://www.w3.org/2000/svg" xmlns:xlink="http://www.w3.org/1999/xlink">
<g id="graph0" class="graph" transform="scale(1 1) rotate(0) translate(4 112)">
<title>packages</title>
<polygon fill="white" stroke="none" points="-4,4 -4,-112 395.38,-112 395.38,4 -4,4"/>
<!-- tail_jsonl -->
<g id="node1" class="node">
<title>tail_jsonl</title>
<polygon fill="none" stroke="black" points="66.25,-36 0,-36 0,0 66.25,0 66.25,-36"/>
<text text-anchor="middle" x="33.12" y="-12.95" font-family="Times,serif" font-size="14.00">tail_jsonl</text>
</g>
<!-- tail_jsonl._private -->
<g id="node2" class="node">
<title>tail_jsonl._private</title>
<polygon fill="none" stroke="black" points="198.25,-36 84,-36 84,0 198.25,0 198.25,-36"/>
<text text-anchor="middle" x="141.12" y="-12.95" font-family="Times,serif" font-size="14.00">tail_jsonl._private</text>
</g>
<!-- tail_jsonl._private.core -->
<g id="node3" class="node">
<title>tail_jsonl._private.core</title>
<polygon fill="none" stroke="black" points="268.75,-108 127.5,-108 127.5,-72 268.75,-72 268.75,-108"/>
<text text-anchor="middle" x="198.12" y="-84.95" font-family="Times,serif" font-size="14.00">tail_jsonl._private.core</text>
</g>
<!-- tail_jsonl.config -->
<g id="node4" class="node">
<title>tail_jsonl.config</title>
<polygon fill="none" stroke="black" points="391.38,-108 286.88,-108 286.88,-72 391.38,-72 391.38,-108"/>
<text text-anchor="middle" x="339.12" y="-84.95" font-family="Times,serif" font-size="14.00">tail_jsonl.config</text>
</g>
<!-- tail_jsonl.scripts -->
<g id="node5" class="node">
<title>tail_jsonl.scripts</title>
<polygon fill="none" stroke="black" points="321.75,-36 216.5,-36 216.5,0 321.75,0 321.75,-36"/>
<text text-anchor="middle" x="269.12" y="-12.95" font-family="Times,serif" font-size="14.00">tail_jsonl.scripts</text>
</g>
<!-- tail_jsonl.scripts&#45;&gt;tail_jsonl._private.core -->
<g id="edge1" class="edge">
<title>tail_jsonl.scripts&#45;&gt;tail_jsonl._private.core</title>
<path fill="none" stroke="black" d="M251.57,-36.3C242.8,-44.95 232.05,-55.55 222.5,-64.97"/>
<polygon fill="black" stroke="black" points="215.47,-71.9 219.44,-61.67 219.03,-68.39 222.59,-64.87 222.59,-64.87 222.59,-64.87 219.03,-68.39 225.75,-68.08 215.47,-71.9 215.47,-71.9"/>
</g>
<!-- tail_jsonl.scripts&#45;&gt;tail_jsonl.config -->
<g id="edge2" class="edge">
<title>tail_jsonl.scripts&#45;&gt;tail_jsonl.config</title>
<path fill="none" stroke="black" d="M286.43,-36.3C295.07,-44.95 305.68,-55.55 315.1,-64.97"/>
<polygon fill="black" stroke="black" points="322.02,-71.9 311.77,-68.01 318.49,-68.36 314.95,-64.82 314.95,-64.82 314.95,-64.82 318.49,-68.36 318.13,-61.64 322.02,-71.9 322.02,-71.9"/>
</g>
</g>
</svg>
