<?xml version="1.0" encoding="UTF-8" standalone="no"?>
<!DOCTYPE svg PUBLIC "-//W3C//DTD SVG 1.1//EN"
 "http://www.w3.org/Graphics/SVG/1.1/DTD/svg11.dtd">
<!-- Generated by graphviz version 11.0.0 (20240428.1522)
 -->
<!-- Title: packages Pages: 1 -->
<svg width="399pt" height="116pt"
 viewBox="0.00 0.00 399.38 116.00" xmlns="http://www.w3.org/2000/svg" xmlns:xlink="http://www.w3.org/1999/xlink">
<g id="graph0" class="graph" transform="scale(1 1) rotate(0) translate(4 112)">
<title>packages</title>
<polygon fill="white" stroke="none" points="-4,4 -4,-112 395.38,-112 395.38,4 -4,4"/>
<!-- tail_jsonl -->
<g id="node1" class="node">
<title>tail_jsonl</title>
<polygon fill="none" stroke="black" points="66.25,-36 0,-36 0,0 66.25,0 66.25,-36"/>
<text text-anchor="middle" x="33.12" y="-12.95" font-family="Times,serif" font-size="14.00">tail_jsonl</text>
</g>
<!-- tail_jsonl._private -->
<g id="node2" class="node">
<title>tail_jsonl._private</title>
<polygon fill="none" stroke="black" points="198.25,-36 84,-36 84,0 198.25,0 198.25,-36"/>
<text text-anchor="middle" x="141.12" y="-12.95" font-family="Times,serif" font-size="14.00">tail_jsonl._private</text>
</g>
<!-- tail_jsonl._private.core -->
<g id="node3" class="node">
<title>tail_jsonl._private.core</title>
<polygon fill="none" stroke="black" points="268.75,-108 127.5,-108 127.5,-72 268.75,-72 268.75,-108"/>
<text text-anchor="middle" x="198.12" y="-84.95" font-family="Times,serif" font-size="14.00">tail_jsonl._private.core</text>
</g>
<!-- tail_jsonl.config -->
<g id="node4" class="node">
<title>tail_jsonl.config</title>
<polygon fill="none" stroke="black" points="391.38,-108 286.88,-108 286.88,-72 391.38,-72 391.38,-108"/>
<text text-anchor="middle" x="339.12" y="-84.95" font-family="Times,serif" font-size="14.00">tail_jsonl.config</text>
</g>
<!-- tail_jsonl.scripts -->
<g id="node5" class="node">
<title>tail_jsonl.scripts</title>
<polygon fill="none" stroke="black" points="321.75,-36 216.5,-36 216.5,0 321.75,0 321.75,-36"/>
<text text-anchor="middle" x="269.12" y="-12.95" font-family="Times,serif" font-size="14.00">tail_jsonl.scripts</text>
</g>
<!-- tail_jsonl.scripts&#45;&gt;tail_jsonl._private.core -->
<g id="edge1" class="edge">
<title>tail_jsonl.scripts&#45;&gt;tail_jsonl._private.core</title>
<path fill="none" stroke="black" d="M251.57,-36.3C243.06,-44.7 232.68,-54.93 223.34,-64.14"/>
<polygon fill="black" stroke="black" points="216.34,-71.04 220.3,-60.81 219.03,-68.39 223.46,-64.02 223.46,-64.02 223.46,-64.02 219.03,-68.39 226.62,-67.22 216.34,-71.04"/>
</g>
<!-- tail_jsonl.scripts&#45;&gt;tail_jsonl.config -->
<g id="edge2" class="edge">
<title>tail_jsonl.scripts&#45;&gt;tail_jsonl.config</title>
<path fill="none" stroke="black" d="M286.43,-36.3C294.82,-44.7 305.05,-54.93 314.26,-64.14"/>
<polygon fill="black" stroke="black" points="321.16,-71.03 310.91,-67.15 318.49,-68.36 314.09,-63.96 314.09,-63.96 314.09,-63.96 318.49,-68.36 317.27,-60.78 321.16,-71.03"/>
</g>
</g>
</svg>
