<?xml version="1.0" encoding="UTF-8" standalone="no"?>
<!DOCTYPE svg PUBLIC "-//W3C//DTD SVG 1.1//EN"
 "http://www.w3.org/Graphics/SVG/1.1/DTD/svg11.dtd">
<!-- Generated by graphviz version 7.1.0 (20230121.1956)
 -->
<!-- Title: packages Pages: 1 -->
<svg width="317pt" height="188pt"
 viewBox="0.00 0.00 316.50 188.00" xmlns="http://www.w3.org/2000/svg" xmlns:xlink="http://www.w3.org/1999/xlink">
<g id="graph0" class="graph" transform="scale(1 1) rotate(0) translate(4 184)">
<title>packages</title>
<polygon fill="white" stroke="none" points="-4,4 -4,-184 312.5,-184 312.5,4 -4,4"/>
<!-- tail_jsonl -->
<g id="node1" class="node">
<title>tail_jsonl</title>
<polygon fill="none" stroke="black" points="175.5,-36 108.5,-36 108.5,0 175.5,0 175.5,-36"/>
<text text-anchor="middle" x="142" y="-14.3" font-family="Times,serif" font-size="14.00">tail_jsonl</text>
</g>
<!-- tail_jsonl.main -->
<g id="node5" class="node">
<title>tail_jsonl.main</title>
<polygon fill="none" stroke="black" points="191,-108 93,-108 93,-72 191,-72 191,-108"/>
<text text-anchor="middle" x="142" y="-86.3" font-family="Times,serif" font-size="14.00">tail_jsonl.main</text>
</g>
<!-- tail_jsonl&#45;&gt;tail_jsonl.main -->
<g id="edge1" class="edge">
<title>tail_jsonl&#45;&gt;tail_jsonl.main</title>
<path fill="none" stroke="black" d="M142,-36.3C142,-44.1 142,-53.49 142,-62.17"/>
<polygon fill="black" stroke="black" points="142,-71.9 137.5,-61.9 142,-66.9 142,-61.9 142,-61.9 142,-61.9 142,-66.9 146.5,-61.9 142,-71.9 142,-71.9"/>
</g>
<!-- tail_jsonl._private -->
<g id="node2" class="node">
<title>tail_jsonl._private</title>
<polygon fill="none" stroke="black" points="308.5,-36 193.5,-36 193.5,0 308.5,0 308.5,-36"/>
<text text-anchor="middle" x="251" y="-14.3" font-family="Times,serif" font-size="14.00">tail_jsonl._private</text>
</g>
<!-- tail_jsonl._private.core -->
<g id="node3" class="node">
<title>tail_jsonl._private.core</title>
<polygon fill="none" stroke="black" points="142,-180 0,-180 0,-144 142,-144 142,-180"/>
<text text-anchor="middle" x="71" y="-158.3" font-family="Times,serif" font-size="14.00">tail_jsonl._private.core</text>
</g>
<!-- tail_jsonl.config -->
<g id="node4" class="node">
<title>tail_jsonl.config</title>
<polygon fill="none" stroke="black" points="265.5,-180 160.5,-180 160.5,-144 265.5,-144 265.5,-180"/>
<text text-anchor="middle" x="213" y="-158.3" font-family="Times,serif" font-size="14.00">tail_jsonl.config</text>
</g>
<!-- tail_jsonl.main&#45;&gt;tail_jsonl._private.core -->
<g id="edge2" class="edge">
<title>tail_jsonl.main&#45;&gt;tail_jsonl._private.core</title>
<path fill="none" stroke="black" d="M124.45,-108.3C115.68,-116.95 104.93,-127.55 95.37,-136.97"/>
<polygon fill="black" stroke="black" points="88.35,-143.9 92.31,-133.67 91.91,-140.39 95.47,-136.87 95.47,-136.87 95.47,-136.87 91.91,-140.39 98.63,-140.08 88.35,-143.9 88.35,-143.9"/>
</g>
<!-- tail_jsonl.main&#45;&gt;tail_jsonl.config -->
<g id="edge3" class="edge">
<title>tail_jsonl.main&#45;&gt;tail_jsonl.config</title>
<path fill="none" stroke="black" d="M159.55,-108.3C168.32,-116.95 179.07,-127.55 188.63,-136.97"/>
<polygon fill="black" stroke="black" points="195.65,-143.9 185.37,-140.08 192.09,-140.39 188.53,-136.87 188.53,-136.87 188.53,-136.87 192.09,-140.39 191.69,-133.67 195.65,-143.9 195.65,-143.9"/>
</g>
</g>
</svg>
